<svg width="72" height="72" viewBox="0 0 72 72" fill="none" xmlns="http://www.w3.org/2000/svg">
<circle opacity="0.4" cx="36" cy="36" r="35.5" stroke="#2E64F1"/>
<circle opacity="0.4" cx="35.9999" cy="36.0001" r="28.2857" fill="#2E64F1"/>
<circle cx="36" cy="35.9999" r="20.5714" fill="#2E64F1"/>
<path d="M44.6033 35.3024L32.1589 28.1024C31.9178 27.9632 31.6238 27.9664 31.3858 28.1088C31.1462 28.2528 31 28.5152 31 28.8V43.2C31 43.4848 31.1462 43.7472 31.3858 43.8912C31.5071 43.9632 31.6424 44 31.7778 44C31.9084 44 32.0407 43.9664 32.1589 43.8976L44.6033 36.6976C44.8476 36.5552 45 36.2896 45 36C45 35.7104 44.8476 35.4448 44.6033 35.3024Z" fill="white"/>
</svg>
